<svg xmlns="http://www.w3.org/2000/svg" width="1871" height="425" viewBox="0 0 1871 425" fill="none"><g clip-path="url(#clip0_387_142)"><path d="M239.165 48.989C238.045 49.749 236.945 50.519 235.875 51.329C222.975 60.979 212.945 74.259 207.305 89.649C206.845 90.929 206.405 92.229 205.995 93.549C203.535 101.409 202.225 109.789 202.225 118.469C202.225 164.729 239.725 202.229 285.985 202.229C332.245 202.229 369.775 164.719 369.775 118.459V118.259C369.715 95.199 360.355 74.339 345.235 59.229L345.215 59.209C330.065 44.059 309.125 34.689 285.995 34.689C268.645 34.699 252.525 39.969 239.165 48.999" fill="white"></path><path d="M343.695 57.7088C328.675 43.4388 308.365 34.6788 286.005 34.6788C268.645 34.6988 252.535 39.9588 239.155 48.9988C238.045 49.7488 236.945 50.5187 235.885 51.3287C222.985 60.9787 212.955 74.2588 207.315 89.6588C206.845 90.9388 206.405 92.2488 205.995 93.5588C203.545 101.419 202.235 109.799 202.235 118.479C202.235 164.739 164.745 202.239 118.475 202.239C88.1048 202.239 61.5148 186.079 46.8048 161.909C45.4048 159.609 44.1249 157.219 42.9349 154.779C42.3549 153.559 41.8048 152.329 41.2748 151.079C39.1548 146.069 37.4948 140.799 36.3848 135.349C35.2548 129.899 34.6948 124.249 34.6748 118.459C34.6748 95.3387 44.0549 74.3887 59.2249 59.2287C59.7249 58.7287 60.2248 58.2188 60.7448 57.7388C139.305 -19.2413 265.105 -19.2412 343.685 57.7088" fill="#DCDEDF"></path><path d="M202.235 285.989C202.235 332.269 164.725 369.779 118.455 369.779C95.335 369.779 74.385 360.399 59.225 345.229C58.725 344.729 58.225 344.229 57.735 343.709C-19.245 265.129 -19.245 139.329 57.735 60.749C43.455 75.759 34.675 96.099 34.675 118.449C34.695 124.239 35.255 129.889 36.385 135.339C37.495 140.789 39.155 146.059 41.275 151.069C41.805 152.319 42.355 153.549 42.935 154.769C44.125 157.209 45.405 159.599 46.805 161.899C61.515 186.069 88.105 202.229 118.475 202.229C164.735 202.229 202.235 239.719 202.235 285.989Z" fill="#C7C9CA"></path><path d="M369.785 285.999C369.785 309.119 360.405 330.069 345.235 345.229C344.735 345.729 344.225 346.239 343.715 346.719C265.135 423.699 139.345 423.699 60.7549 346.719C75.7749 360.999 96.1049 369.779 118.455 369.779C164.725 369.779 202.235 332.269 202.235 285.989C202.235 239.709 239.725 202.229 285.995 202.229C332.265 202.229 369.785 239.739 369.785 286.009" fill="#A7AAAE"></path><path d="M592.375 113.609V157.779H583.255C581.835 154.679 580.325 151.809 578.715 149.179C574.895 142.919 570.545 137.829 565.665 133.909C560.775 129.989 555.385 127.139 549.475 125.359C543.575 123.579 537.155 122.689 530.235 122.689C521.785 122.689 513.945 124.389 506.715 127.799C499.485 131.209 493.225 136.349 487.935 143.209C482.645 150.079 478.495 158.749 475.495 169.229C472.495 179.709 470.995 191.969 470.995 205.999C470.995 218.009 472.475 228.689 475.425 238.049C478.375 247.409 482.625 255.319 488.175 261.779C493.725 268.239 500.445 273.149 508.335 276.509C516.225 279.869 525.105 281.539 534.975 281.539C540.575 281.539 545.765 281.029 550.555 280.009C555.335 278.989 559.975 277.129 564.445 274.429C568.925 271.729 573.405 268.099 577.885 263.509C582.365 258.929 587.195 253.079 592.385 245.949L596.355 248.539C587.805 263.809 577.805 274.999 566.355 282.109C554.905 289.219 541.285 292.779 525.505 292.779C513.385 292.779 502.245 290.639 492.065 286.359C481.885 282.079 473.085 276.079 465.675 268.339C458.265 260.599 452.495 251.429 448.385 240.839C444.275 230.249 442.225 218.589 442.225 205.859C442.225 193.129 444.435 180.859 448.845 169.659C453.255 158.459 459.345 148.709 467.125 140.409C474.895 132.109 484.105 125.569 494.735 120.779C505.375 115.989 516.905 113.599 529.325 113.599C535.435 113.599 541.565 114.339 547.725 115.819C553.875 117.289 559.965 119.559 565.975 122.609C567.705 123.529 569.185 124.239 570.405 124.749C571.625 125.259 572.645 125.509 573.455 125.509C576.205 125.509 578.465 124.389 580.255 122.149C582.035 119.909 583.335 117.059 584.145 113.599H592.385L592.375 113.609Z" fill="white"></path><path d="M1643.79 113.609V157.779H1634.67C1633.25 154.679 1631.74 151.809 1630.13 149.179C1626.31 142.919 1621.96 137.829 1617.08 133.909C1612.19 129.989 1606.8 127.139 1600.89 125.359C1594.98 123.579 1588.57 122.689 1581.65 122.689C1573.2 122.689 1565.36 124.389 1558.13 127.799C1550.9 131.209 1544.64 136.349 1539.35 143.209C1534.06 150.079 1529.91 158.749 1526.91 169.229C1523.91 179.709 1522.41 191.969 1522.41 205.999C1522.41 218.009 1523.89 228.689 1526.84 238.049C1529.79 247.409 1534.04 255.319 1539.59 261.779C1545.14 268.239 1551.86 273.149 1559.75 276.509C1567.64 279.869 1576.52 281.539 1586.39 281.539C1591.99 281.539 1597.18 281.029 1601.97 280.009C1606.76 278.989 1611.39 277.129 1615.87 274.429C1620.35 271.729 1624.83 268.099 1629.31 263.509C1633.79 258.929 1638.62 253.079 1643.81 245.949L1647.78 248.539C1639.23 263.809 1629.23 274.999 1617.78 282.109C1606.33 289.219 1592.71 292.779 1576.93 292.779C1564.81 292.779 1553.67 290.639 1543.49 286.359C1533.31 282.079 1524.51 276.079 1517.1 268.339C1509.69 260.599 1503.92 251.429 1499.81 240.839C1495.7 230.249 1493.65 218.589 1493.65 205.859C1493.65 193.129 1495.86 180.859 1500.27 169.659C1504.68 158.459 1510.78 148.709 1518.55 140.409C1526.33 132.109 1535.53 125.569 1546.17 120.779C1556.81 115.989 1568.34 113.599 1580.76 113.599C1586.87 113.599 1593 114.339 1599.16 115.819C1605.31 117.289 1611.4 119.559 1617.41 122.609C1619.14 123.529 1620.62 124.239 1621.84 124.749C1623.06 125.259 1624.08 125.509 1624.89 125.509C1627.64 125.509 1629.9 124.389 1631.69 122.149C1633.47 119.909 1634.77 117.059 1635.58 113.599H1643.82L1643.79 113.609Z" fill="white"></path><path d="M1345.83 122.989V190.539H1437.6V199.609H1345.83V256.059C1345.83 263.689 1346.13 268.309 1346.74 269.939C1347.05 270.759 1347.48 271.499 1348.04 272.159C1348.6 272.819 1349.36 273.379 1350.33 273.839C1351.3 274.299 1352.54 274.659 1354.07 274.909C1355.6 275.159 1357.58 275.289 1360.03 275.289H1437.6V284.669H1297.01V279.939H1302.97C1304.6 279.939 1306.3 279.759 1308.08 279.399C1309.86 279.039 1311.51 278.509 1313.04 277.799C1314.57 277.089 1315.94 276.169 1317.16 275.049C1318.38 273.929 1319.3 272.609 1319.91 271.079C1320.93 268.439 1321.44 262.889 1321.44 254.449V143.369C1321.44 137.979 1321.18 133.579 1320.68 130.169C1320.17 126.759 1319.36 124.449 1318.24 123.219C1315.19 119.859 1310.1 118.189 1302.97 118.189H1297.01V113.609H1437.6V123.259C1435 123.089 1396.11 122.999 1392.87 122.999H1345.84L1345.83 122.989Z" fill="white"></path><path d="M860.695 113.609H907.115L1011.88 241.989V143.229C1011.88 132.849 1010.66 126.289 1008.21 123.539C1004.95 119.969 1000.07 118.189 993.545 118.189H987.585V113.609H1022.81V287.479H1018.39L905.535 149.639V255.139C905.535 265.629 906.705 272.189 909.045 274.839C912.195 278.299 917.085 280.029 923.705 280.029H929.815V284.759H870.145V280.029H876.105C883.335 280.029 888.475 277.839 891.525 273.459C893.365 270.909 894.275 264.809 894.275 255.139V136.049C891.725 132.999 889.585 130.579 887.855 128.799C886.125 127.019 884.495 125.569 882.975 124.449C881.445 123.329 879.815 122.409 878.085 121.699C876.355 120.989 874.225 120.229 871.675 119.409C869.025 118.589 865.365 118.189 860.685 118.189V113.609H860.695Z" fill="white"></path><path d="M1078.85 113.609H1125.28L1230.03 241.989V143.229C1230.03 132.849 1228.81 126.289 1226.36 123.539C1223.1 119.969 1218.22 118.189 1211.7 118.189H1205.74V113.609H1240.96V287.479H1236.54L1123.69 149.639V255.139C1123.69 265.629 1124.86 272.189 1127.2 274.839C1130.35 278.299 1135.24 280.029 1141.86 280.029H1147.97V284.759H1088.3V280.029H1094.27C1101.5 280.029 1106.63 277.839 1109.68 273.459C1111.52 270.909 1112.43 264.809 1112.43 255.139V136.049C1109.88 132.999 1107.75 130.579 1106.02 128.799C1104.29 127.019 1102.66 125.569 1101.14 124.449C1099.61 123.329 1097.97 122.409 1096.24 121.699C1094.51 120.989 1092.38 120.229 1089.83 119.409C1087.18 118.589 1083.52 118.189 1078.84 118.189V113.609H1078.85Z" fill="white"></path><path d="M730.005 122.679C719.745 122.679 710.635 124.539 702.665 128.259C694.695 131.979 687.965 137.269 682.475 144.149C676.985 151.019 672.815 159.349 669.985 169.129C667.145 178.909 665.725 189.859 665.725 201.979C665.725 214.099 667.115 225.159 669.885 235.139C672.655 245.119 676.765 253.729 682.195 260.959C687.625 268.189 694.355 273.789 702.385 277.769C710.415 281.739 719.675 283.729 730.175 283.729C739.595 283.729 748.285 282.199 756.245 279.149C764.215 276.089 771.155 271.379 777.075 265.019C782.985 258.649 787.605 250.549 790.925 240.719C794.245 230.889 795.905 219.149 795.905 205.499C795.905 191.849 794.515 180.669 791.745 170.439C788.965 160.199 784.805 151.539 779.255 144.469C773.705 137.389 766.825 131.989 758.615 128.269C750.405 124.549 740.875 122.689 730.005 122.689M733.035 113.609C746.305 113.609 758.395 116.109 769.305 121.099C780.225 126.089 789.545 132.709 797.275 140.959C805.005 149.209 811.015 158.649 815.295 169.289C819.575 179.929 821.715 190.909 821.715 202.209C821.715 215.039 819.325 226.979 814.555 238.029C809.785 249.079 803.285 258.649 795.055 266.749C786.835 274.849 777.205 281.209 766.175 285.839C755.155 290.479 743.395 292.789 730.885 292.789C718.375 292.789 706.515 290.579 695.595 286.139C684.685 281.709 675.195 275.499 667.125 267.509C659.065 259.519 652.705 249.999 648.045 238.949C643.375 227.899 641.055 215.759 641.055 202.509C641.055 190.189 643.355 178.609 647.965 167.759C652.575 156.909 658.985 147.489 667.215 139.499C675.435 131.509 685.175 125.189 696.415 120.559C707.665 115.929 719.865 113.609 733.025 113.609" fill="white"></path><path d="M1870.94 113.609V124.239H1800.03V255.049C1800.03 265.629 1801.15 272.199 1803.38 274.729C1806.54 278.189 1811.48 279.929 1818.19 279.929H1824.15V284.659H1751.35V279.929H1757.46C1764.69 279.929 1769.83 277.739 1772.88 273.359C1774.71 270.809 1775.63 264.709 1775.63 255.049V124.239H1703.79V113.609H1870.93H1870.94Z" fill="white"></path><path d="M641.915 405.009H648.965L647.715 392.309C647.615 391.329 647.545 390.379 647.495 389.449C647.445 388.519 647.425 387.639 647.425 386.809C647.425 384.019 647.735 381.599 648.345 379.539C648.955 377.479 649.975 375.599 651.395 373.889L653.455 371.469V371.099H642.515V365.809H665.865C670.615 365.809 674.195 367.059 676.625 369.559C679.055 372.059 680.255 375.679 680.255 380.429V410.319H674.235V380.209C674.235 376.929 673.425 374.589 671.815 373.199C670.195 371.799 668.095 371.109 665.495 371.109H656.385L655.725 372.429C654.795 374.239 654.155 376.079 653.815 377.939C653.475 379.799 653.305 381.829 653.305 384.029C653.305 385.299 653.355 386.649 653.455 388.069C653.555 389.489 653.675 391.009 653.825 392.619L655.515 410.319H641.925V405.029L641.915 405.009ZM703.235 365.799H709.255V410.299H703.235V365.799ZM728.855 406.629L742.885 404.429L728.855 365.799H735.315L744.205 390.279L748.535 403.029C752.055 401.559 754.615 399.049 756.205 395.479C757.795 391.909 758.595 387.249 758.595 381.479V365.799H764.545V380.779C764.545 385.279 764.145 389.209 763.335 392.569C762.525 395.919 761.255 398.779 759.515 401.119C757.775 403.469 755.525 405.359 752.755 406.769C749.985 408.189 746.645 409.219 742.735 409.849L728.855 412.049V406.619V406.629ZM816.535 371.079H786.425V365.789H822.925V371.219L808.095 410.289H801.705L816.535 371.079ZM786.435 388.269H792.455V424.989H786.435V388.269ZM862.435 411.179C858.325 411.179 854.855 410.649 852.045 409.599C849.225 408.549 846.945 406.929 845.175 404.749C843.415 402.569 842.155 399.839 841.395 396.559C840.635 393.279 840.255 389.389 840.255 384.879V365.789H846.275V386.569H859.495V365.789H865.445V385.759C865.445 387.519 864.915 388.979 863.865 390.129C862.815 391.279 861.255 391.859 859.205 391.859H846.575C847.165 396.679 848.705 400.199 851.205 402.419C853.705 404.639 857.445 405.739 862.445 405.739C865.385 405.739 867.865 405.369 869.895 404.639C871.925 403.909 873.595 402.749 874.885 401.159C876.185 399.569 877.125 397.559 877.715 395.109C878.305 392.669 878.595 389.739 878.595 386.309V365.789H884.615V384.879C884.615 389.379 884.235 393.279 883.475 396.559C882.715 399.839 881.455 402.569 879.695 404.749C877.935 406.929 875.645 408.539 872.825 409.599C870.005 410.649 866.545 411.179 862.435 411.179ZM934.915 380.189C934.915 376.909 934.105 374.569 932.495 373.179C930.885 371.789 928.775 371.089 926.175 371.089H906.865V365.799H926.545C931.295 365.799 934.875 367.049 937.305 369.549C939.735 372.049 940.935 375.669 940.935 380.419V410.309H934.915V380.199V380.189ZM906.865 388.269H912.885V410.299H906.865V388.269Z" fill="white"></path><path d="M986.855 395.131C986.135 395.131 985.799 394.723 985.799 394.171V393.931C985.799 393.379 986.135 392.971 986.855 392.971C987.575 392.971 987.911 393.379 987.911 393.931V394.171C987.911 394.723 987.575 395.131 986.855 395.131Z" fill="white"></path><path d="M1052.19 365.799H1072.6C1077.35 365.799 1080.93 367.049 1083.36 369.549C1085.78 372.049 1086.99 375.669 1086.99 380.419V410.309H1052.18V365.809L1052.19 365.799ZM1080.98 405.009V380.189C1080.98 376.909 1080.17 374.569 1078.56 373.179C1076.95 371.789 1074.84 371.089 1072.24 371.089H1058.21V405.019H1080.97L1080.98 405.009ZM1109.25 365.799H1115.27V390.329H1109.25V365.799ZM1138.11 365.799H1159.41C1162.2 365.799 1164.71 366.269 1166.94 367.199C1169.17 368.129 1171.08 369.529 1172.67 371.389C1174.26 373.249 1175.48 375.559 1176.34 378.329C1177.2 381.099 1177.63 384.339 1177.63 388.059C1177.63 391.779 1177.15 395.149 1176.2 398.009C1175.25 400.869 1173.91 403.289 1172.2 405.239C1170.49 407.199 1168.44 408.679 1166.07 409.679C1163.69 410.679 1161.06 411.189 1158.18 411.189C1155.3 411.189 1152.65 410.689 1150.25 409.679C1147.85 408.679 1145.79 407.199 1144.08 405.239C1142.37 403.279 1141.03 400.869 1140.08 398.009C1139.13 395.149 1138.65 391.829 1138.65 388.059C1138.65 385.999 1138.91 384.069 1139.42 382.259C1139.93 380.449 1140.59 378.829 1141.4 377.409C1142.21 375.989 1143.13 374.769 1144.15 373.739C1145.18 372.709 1146.18 371.949 1147.16 371.459V371.089H1138.13V365.799H1138.11ZM1158.16 405.749C1160.07 405.749 1161.82 405.409 1163.41 404.719C1165 404.039 1166.38 403.069 1167.56 401.829C1168.74 400.589 1169.65 399.079 1170.31 397.319C1170.97 395.559 1171.3 393.609 1171.3 391.459V385.009C1171.3 380.609 1170.14 377.189 1167.81 374.749C1165.48 372.309 1162.49 371.089 1158.81 371.089H1150.07C1148.21 372.849 1146.89 374.969 1146.1 377.459C1145.32 379.949 1144.93 382.639 1144.93 385.519V391.459C1144.93 393.609 1145.26 395.559 1145.92 397.319C1146.58 399.079 1147.5 400.579 1148.67 401.829C1149.84 403.079 1151.24 404.039 1152.86 404.719C1154.48 405.399 1156.24 405.749 1158.15 405.749H1158.16ZM1193.99 405.009H1204.27V376.079C1204.27 375.349 1204.21 374.669 1204.09 374.059C1203.97 373.449 1203.7 372.919 1203.28 372.479C1202.86 372.039 1202.23 371.699 1201.37 371.449C1200.51 371.209 1199.35 371.079 1197.88 371.079H1194.5V365.789H1198.32C1200.67 365.789 1202.62 365.999 1204.16 366.409C1205.7 366.829 1206.93 367.459 1207.83 368.319C1208.74 369.179 1209.37 370.229 1209.74 371.479C1210.11 372.729 1210.29 374.189 1210.29 375.849V410.289H1193.99V404.999V405.009ZM1229.75 405.009H1240.03V376.079C1240.03 375.349 1239.97 374.669 1239.85 374.059C1239.73 373.449 1239.46 372.919 1239.04 372.479C1238.62 372.039 1237.99 371.699 1237.13 371.449C1236.27 371.209 1235.11 371.079 1233.64 371.079H1230.26V365.789H1234.08C1236.43 365.789 1238.38 365.999 1239.92 366.409C1241.46 366.829 1242.69 367.459 1243.59 368.319C1244.5 369.179 1245.13 370.229 1245.5 371.479C1245.87 372.729 1246.05 374.189 1246.05 375.849V410.289H1229.75V404.999V405.009ZM1268.31 365.799H1274.33V390.329H1268.31V365.799ZM1296.95 405.009H1313.55C1317.22 405.009 1320.22 403.789 1322.55 401.339C1324.87 398.889 1326.04 395.469 1326.04 391.059V385.039C1326.04 380.629 1324.88 377.209 1322.55 374.759C1320.22 372.309 1317.23 371.089 1313.55 371.089H1302.98V386.579H1313.19V391.869H1303.35C1301.29 391.869 1299.72 391.279 1298.61 390.109C1297.51 388.939 1296.96 387.439 1296.96 385.629V365.799H1314.14C1316.93 365.799 1319.44 366.269 1321.67 367.199C1323.9 368.129 1325.81 369.529 1327.4 371.389C1328.99 373.249 1330.21 375.559 1331.07 378.329C1331.93 381.099 1332.36 384.339 1332.36 388.059C1332.36 391.779 1331.93 395.019 1331.07 397.789C1330.21 400.559 1328.99 402.869 1327.4 404.729C1325.81 406.589 1323.9 407.989 1321.67 408.919C1319.44 409.849 1316.93 410.319 1314.14 410.319H1296.96V405.029L1296.95 405.009Z" fill="white"></path><path d="M1375.91 395.131C1375.19 395.131 1374.85 394.723 1374.85 394.171V393.931C1374.85 393.379 1375.19 392.971 1375.91 392.971C1376.63 392.971 1376.96 393.379 1376.96 393.931V394.171C1376.96 394.723 1376.63 395.131 1375.91 395.131Z" fill="white"></path><path d="M1441.24 365.799H1461.65C1466.4 365.799 1469.98 367.049 1472.41 369.549C1474.83 372.049 1476.04 375.669 1476.04 380.419V410.309H1470.02V380.199C1470.02 376.919 1469.21 374.579 1467.6 373.189C1465.99 371.799 1463.88 371.099 1461.28 371.099H1447.25V410.309H1441.23V365.809L1441.24 365.799ZM1499.03 365.799H1505.05V410.299H1499.03V365.799ZM1545.74 411.179C1542.26 411.179 1539.34 410.739 1536.96 409.859C1534.58 408.979 1532.69 407.629 1531.27 405.819C1529.85 404.009 1528.83 401.729 1528.22 398.989C1527.61 396.249 1527.3 393.019 1527.3 389.299V365.799H1533.32V390.719C1533.32 395.749 1534.24 399.519 1536.07 402.009C1537.9 404.499 1541.12 405.749 1545.73 405.749C1550.34 405.749 1553.55 404.509 1555.39 402.009C1557.23 399.519 1558.14 395.759 1558.14 390.729V380.179C1558.14 376.909 1557.33 374.569 1555.72 373.179C1554.1 371.789 1552 371.089 1549.4 371.089H1545.14V365.799H1549.77C1554.52 365.799 1558.1 367.049 1560.53 369.549C1562.95 372.049 1564.16 375.669 1564.16 380.419V389.309C1564.16 393.029 1563.85 396.259 1563.24 398.999C1562.63 401.739 1561.6 404.019 1560.16 405.829C1558.72 407.639 1556.82 408.989 1554.47 409.869C1552.12 410.749 1549.21 411.189 1545.73 411.189L1545.74 411.179ZM1585.32 365.799H1591.34V390.329H1585.32V365.799ZM1610.43 405.009H1633.27V371.079H1611.02V365.789H1632.9C1634.96 365.789 1636.53 366.369 1637.64 367.519C1638.74 368.669 1639.29 370.149 1639.29 371.959V405.009H1645.53V410.299H1610.43V405.009Z" fill="white"></path></g><defs><clipPath id="clip0_387_142"><rect width="1871" height="425" fill="white"></rect></clipPath></defs></svg>